<svg xmlns="http://www.w3.org/2000/svg" viewBox="0 0 496.65 496.65"><defs><style>.cls-1{fill:#89d6f8;}.cls-2{fill:#435a6c;}</style></defs><title>user_default</title><g id="Layer_2" data-name="Layer 2"><g id="Layer_1-2" data-name="Layer 1"><rect class="cls-1" width="496.65" height="496.65"/><path class="cls-2" d="M423.4,471.73v24.91H73.25V472.55a68.87,68.87,0,0,1,11.38-38c.46-.7.94-1.39,1.42-2.07,5.07-7.84,12.16-13.71,19.62-19.21,19-14,39.33-25.66,60.33-36.38,23.76-12.13,34.93-32.36,35-58.92a12.13,12.13,0,0,0-5.51-10.9,139.42,139.42,0,0,1-34.16-34.58c-7.13-10.48-12.08-21.74-10.57-34.82.39-3.37-1.53-3-3.69-3.25a22.27,22.27,0,0,1-17-33.63,17.75,17.75,0,0,1,9.64-8.41c2.91-1,3.24-2.18,2.24-4.86-2.48-6.62-4.68-13.35-7-20-13.26-37.8-.44-78.07,32.75-100.64,22.22-15.11,46.93-23.37,74-23,32.22.42,57.44,14.76,77,39.84,1.48,1.91,2.68,3.15,5.42,2.93,24.55-2,32.44,13.67,34.82,29.74,3,20.15-.82,39.78-5.24,59.32-.39,1.72-.91,3.42-1.35,5.12-2.11,8-2.09,8,5.53,11.36,8.27,3.6,13.37,12.86,12.18,22.16-1.43,11.33-8.09,18.62-19.08,19.82-4.15.44-4.79,1.72-4.43,5.51.92,9.84-2.34,18.78-7.2,27.11C329.72,283,316.5,296,301.44,307c-4.1,3-5.42,6.4-5.45,10.91-.13,26.2,10.84,46.37,34.15,58.38,21.95,11.31,43.33,23.41,63.08,38.24l1.6,1.2a89.83,89.83,0,0,1,8.39,7.13,65.55,65.55,0,0,1,4.77,5.31,64.46,64.46,0,0,1,4,5.51A68.94,68.94,0,0,1,423.4,471.73Z"/></g></g></svg>